<mxfile host="app.diagrams.net" modified="2024-05-11T17:55:58.018Z" agent="Mozilla/5.0 (Windows NT 10.0; Win64; x64) AppleWebKit/537.36 (KHTML, like Gecko) Chrome/124.0.0.0 Safari/537.36 Edg/124.0.0.0" etag="cCQuBPYUmAnVZXBhqEA6" version="24.3.1" type="github">
  <diagram name="第 1 页" id="2Pb6b95sxBEwKU7SVahb">
    <mxGraphModel dx="1514" dy="857" grid="1" gridSize="10" guides="1" tooltips="1" connect="1" arrows="1" fold="1" page="1" pageScale="1" pageWidth="827" pageHeight="1169" math="0" shadow="0">
      <root>
        <mxCell id="0" />
        <mxCell id="1" parent="0" />
        <mxCell id="HphyZnqfw9ql_UfDrVzJ-6" style="edgeStyle=orthogonalEdgeStyle;rounded=0;orthogonalLoop=1;jettySize=auto;html=1;exitX=0.5;exitY=1;exitDx=0;exitDy=0;entryX=0.5;entryY=0;entryDx=0;entryDy=0;" edge="1" parent="1" source="HphyZnqfw9ql_UfDrVzJ-1" target="HphyZnqfw9ql_UfDrVzJ-2">
          <mxGeometry relative="1" as="geometry" />
        </mxCell>
        <mxCell id="HphyZnqfw9ql_UfDrVzJ-1" value="&lt;font face=&quot;Times New Roman&quot;&gt;ERA5降雨数据预处理&lt;/font&gt;" style="rounded=0;whiteSpace=wrap;html=1;" vertex="1" parent="1">
          <mxGeometry x="160" y="120" width="120" height="30" as="geometry" />
        </mxCell>
        <mxCell id="HphyZnqfw9ql_UfDrVzJ-7" style="edgeStyle=orthogonalEdgeStyle;rounded=0;orthogonalLoop=1;jettySize=auto;html=1;exitX=0.5;exitY=1;exitDx=0;exitDy=0;entryX=0;entryY=0.5;entryDx=0;entryDy=0;" edge="1" parent="1" source="HphyZnqfw9ql_UfDrVzJ-2" target="HphyZnqfw9ql_UfDrVzJ-4">
          <mxGeometry relative="1" as="geometry" />
        </mxCell>
        <mxCell id="HphyZnqfw9ql_UfDrVzJ-2" value="&lt;font face=&quot;Times New Roman&quot;&gt;提取3h降雨事件&lt;/font&gt;" style="rounded=0;whiteSpace=wrap;html=1;" vertex="1" parent="1">
          <mxGeometry x="160" y="170" width="120" height="30" as="geometry" />
        </mxCell>
        <mxCell id="HphyZnqfw9ql_UfDrVzJ-8" style="edgeStyle=orthogonalEdgeStyle;rounded=0;orthogonalLoop=1;jettySize=auto;html=1;exitX=0.5;exitY=1;exitDx=0;exitDy=0;entryX=1;entryY=0.5;entryDx=0;entryDy=0;" edge="1" parent="1" source="HphyZnqfw9ql_UfDrVzJ-3" target="HphyZnqfw9ql_UfDrVzJ-4">
          <mxGeometry relative="1" as="geometry" />
        </mxCell>
        <mxCell id="HphyZnqfw9ql_UfDrVzJ-3" value="&lt;font face=&quot;Times New Roman&quot;&gt;构建SWMM管网模型&lt;/font&gt;" style="rounded=0;whiteSpace=wrap;html=1;" vertex="1" parent="1">
          <mxGeometry x="320" y="170" width="120" height="30" as="geometry" />
        </mxCell>
        <mxCell id="HphyZnqfw9ql_UfDrVzJ-9" style="edgeStyle=orthogonalEdgeStyle;rounded=0;orthogonalLoop=1;jettySize=auto;html=1;exitX=0.5;exitY=1;exitDx=0;exitDy=0;entryX=0.5;entryY=0;entryDx=0;entryDy=0;" edge="1" parent="1" source="HphyZnqfw9ql_UfDrVzJ-4" target="HphyZnqfw9ql_UfDrVzJ-5">
          <mxGeometry relative="1" as="geometry" />
        </mxCell>
        <mxCell id="HphyZnqfw9ql_UfDrVzJ-4" value="&lt;font face=&quot;Times New Roman&quot;&gt;SWMM数值模拟&lt;/font&gt;" style="rounded=0;whiteSpace=wrap;html=1;" vertex="1" parent="1">
          <mxGeometry x="240" y="220" width="120" height="30" as="geometry" />
        </mxCell>
        <mxCell id="HphyZnqfw9ql_UfDrVzJ-11" style="edgeStyle=orthogonalEdgeStyle;rounded=0;orthogonalLoop=1;jettySize=auto;html=1;exitX=0.5;exitY=1;exitDx=0;exitDy=0;entryX=0.5;entryY=0;entryDx=0;entryDy=0;" edge="1" parent="1" source="HphyZnqfw9ql_UfDrVzJ-5" target="HphyZnqfw9ql_UfDrVzJ-10">
          <mxGeometry relative="1" as="geometry" />
        </mxCell>
        <mxCell id="HphyZnqfw9ql_UfDrVzJ-5" value="&lt;font face=&quot;Times New Roman&quot;&gt;节点水深模拟结果(N组)&lt;/font&gt;" style="rounded=0;whiteSpace=wrap;html=1;" vertex="1" parent="1">
          <mxGeometry x="235" y="270" width="130" height="30" as="geometry" />
        </mxCell>
        <mxCell id="HphyZnqfw9ql_UfDrVzJ-14" style="edgeStyle=orthogonalEdgeStyle;rounded=0;orthogonalLoop=1;jettySize=auto;html=1;exitX=0.5;exitY=1;exitDx=0;exitDy=0;entryX=0.5;entryY=0;entryDx=0;entryDy=0;" edge="1" parent="1" source="HphyZnqfw9ql_UfDrVzJ-10" target="HphyZnqfw9ql_UfDrVzJ-12">
          <mxGeometry relative="1" as="geometry" />
        </mxCell>
        <mxCell id="HphyZnqfw9ql_UfDrVzJ-10" value="&lt;font face=&quot;Times New Roman&quot;&gt;总训练样本集&lt;/font&gt;" style="rounded=0;whiteSpace=wrap;html=1;" vertex="1" parent="1">
          <mxGeometry x="240" y="320" width="120" height="30" as="geometry" />
        </mxCell>
        <mxCell id="HphyZnqfw9ql_UfDrVzJ-12" value="&lt;font face=&quot;Times New Roman&quot;&gt;涝点训练子集&lt;/font&gt;" style="rounded=0;whiteSpace=wrap;html=1;" vertex="1" parent="1">
          <mxGeometry x="240" y="370" width="120" height="30" as="geometry" />
        </mxCell>
        <mxCell id="HphyZnqfw9ql_UfDrVzJ-18" style="edgeStyle=orthogonalEdgeStyle;rounded=0;orthogonalLoop=1;jettySize=auto;html=1;exitX=0.5;exitY=1;exitDx=0;exitDy=0;entryX=1;entryY=0.5;entryDx=0;entryDy=0;" edge="1" parent="1" source="HphyZnqfw9ql_UfDrVzJ-13" target="HphyZnqfw9ql_UfDrVzJ-16">
          <mxGeometry relative="1" as="geometry" />
        </mxCell>
        <mxCell id="HphyZnqfw9ql_UfDrVzJ-13" value="&lt;font face=&quot;Times New Roman&quot;&gt;LSTM神经网络搭建&lt;/font&gt;" style="rounded=0;whiteSpace=wrap;html=1;" vertex="1" parent="1">
          <mxGeometry x="400" y="380" width="120" height="30" as="geometry" />
        </mxCell>
        <mxCell id="HphyZnqfw9ql_UfDrVzJ-17" value="" style="edgeStyle=orthogonalEdgeStyle;rounded=0;orthogonalLoop=1;jettySize=auto;html=1;exitX=0.5;exitY=1;exitDx=0;exitDy=0;entryX=0.5;entryY=0;entryDx=0;entryDy=0;" edge="1" parent="1" source="HphyZnqfw9ql_UfDrVzJ-12" target="HphyZnqfw9ql_UfDrVzJ-16">
          <mxGeometry relative="1" as="geometry">
            <mxPoint x="340" y="420" as="targetPoint" />
          </mxGeometry>
        </mxCell>
        <mxCell id="HphyZnqfw9ql_UfDrVzJ-20" style="edgeStyle=orthogonalEdgeStyle;rounded=0;orthogonalLoop=1;jettySize=auto;html=1;exitX=0.5;exitY=1;exitDx=0;exitDy=0;entryX=0.5;entryY=0;entryDx=0;entryDy=0;" edge="1" parent="1" source="HphyZnqfw9ql_UfDrVzJ-16" target="HphyZnqfw9ql_UfDrVzJ-19">
          <mxGeometry relative="1" as="geometry" />
        </mxCell>
        <mxCell id="HphyZnqfw9ql_UfDrVzJ-16" value="&lt;font face=&quot;Times New Roman&quot;&gt;基于涝点和流向训练&lt;/font&gt;" style="rounded=0;whiteSpace=wrap;html=1;" vertex="1" parent="1">
          <mxGeometry x="240" y="420" width="120" height="30" as="geometry" />
        </mxCell>
        <mxCell id="HphyZnqfw9ql_UfDrVzJ-23" style="edgeStyle=orthogonalEdgeStyle;rounded=0;orthogonalLoop=1;jettySize=auto;html=1;exitX=0.5;exitY=1;exitDx=0;exitDy=0;entryX=0.5;entryY=0;entryDx=0;entryDy=0;" edge="1" parent="1" source="HphyZnqfw9ql_UfDrVzJ-19" target="HphyZnqfw9ql_UfDrVzJ-21">
          <mxGeometry relative="1" as="geometry" />
        </mxCell>
        <mxCell id="HphyZnqfw9ql_UfDrVzJ-19" value="&lt;font face=&quot;Times New Roman&quot;&gt;预测未训练样本&lt;/font&gt;" style="rounded=0;whiteSpace=wrap;html=1;" vertex="1" parent="1">
          <mxGeometry x="240" y="470" width="120" height="30" as="geometry" />
        </mxCell>
        <mxCell id="HphyZnqfw9ql_UfDrVzJ-24" style="edgeStyle=orthogonalEdgeStyle;rounded=0;orthogonalLoop=1;jettySize=auto;html=1;exitX=0.5;exitY=1;exitDx=0;exitDy=0;entryX=0.5;entryY=0;entryDx=0;entryDy=0;" edge="1" parent="1" source="HphyZnqfw9ql_UfDrVzJ-21" target="HphyZnqfw9ql_UfDrVzJ-22">
          <mxGeometry relative="1" as="geometry" />
        </mxCell>
        <mxCell id="HphyZnqfw9ql_UfDrVzJ-21" value="&lt;font face=&quot;Times New Roman&quot;&gt;过程引入实测反馈&lt;/font&gt;&lt;span style=&quot;color: rgba(0, 0, 0, 0); font-family: monospace; font-size: 0px; text-align: start; text-wrap: nowrap;&quot;&gt;%3CmxGraphModel%3E%3Croot%3E%3CmxCell%20id%3D%220%22%2F%3E%3CmxCell%20id%3D%221%22%20parent%3D%220%22%2F%3E%3CmxCell%20id%3D%222%22%20value%3D%22%26lt%3Bfont%20face%3D%26quot%3BTimes%20New%20Roman%26quot%3B%26gt%3BSWMM%E6%95%B0%E5%80%BC%E6%A8%A1%E6%8B%9F%26lt%3B%2Ffont%26gt%3B%22%20style%3D%22rounded%3D0%3BwhiteSpace%3Dwrap%3Bhtml%3D1%3B%22%20vertex%3D%221%22%20parent%3D%221%22%3E%3CmxGeometry%20x%3D%22240%22%20y%3D%22220%22%20width%3D%22120%22%20height%3D%2230%22%20as%3D%22geometry%22%2F%3E%3C%2FmxCell%3E%3C%2Froot%3E%3C%2FmxGraphModel%3E&lt;/span&gt;" style="rounded=0;whiteSpace=wrap;html=1;" vertex="1" parent="1">
          <mxGeometry x="240" y="520" width="120" height="30" as="geometry" />
        </mxCell>
        <mxCell id="HphyZnqfw9ql_UfDrVzJ-22" value="&lt;font face=&quot;Times New Roman&quot;&gt;精度评价及模型优化&lt;/font&gt;" style="rounded=0;whiteSpace=wrap;html=1;" vertex="1" parent="1">
          <mxGeometry x="240" y="570" width="120" height="30" as="geometry" />
        </mxCell>
      </root>
    </mxGraphModel>
  </diagram>
</mxfile>
